<?xml version="1.0" encoding="UTF-8" standalone="no"?>
<svg width="24px" height="21px" viewBox="0 0 24 21" version="1.1" xmlns="http://www.w3.org/2000/svg" xmlns:xlink="http://www.w3.org/1999/xlink" xmlns:sketch="http://www.bohemiancoding.com/sketch/ns">
    <!-- Generator: Sketch Beta 3.2.2 (9983) - http://www.bohemiancoding.com/sketch -->
    <title>google-plus</title>
    <desc>Created with Sketch Beta.</desc>
    <defs></defs>
    <g id="Page-1" stroke="none" stroke-width="1" fill="none" fill-rule="evenodd" sketch:type="MSPage">
        <g id="header" sketch:type="MSArtboardGroup" transform="translate(-1100.000000, -704.000000)" fill="#333333">
            <g id="detail-page" sketch:type="MSLayerGroup" transform="translate(80.000000, 272.000000)">
                <g id="social-link" transform="translate(1008.000000, 351.000000)" sketch:type="MSShapeGroup">
                    <g id="google-plus-button" transform="translate(0.000000, 65.000000)">
                        <path d="M25.125,16 L24.3515625,16 L22.546875,16 L20.4609375,16 L18.84375,16 C18.1249964,16 17.4375033,16.1249987 16.78125,16.375 C16.1249967,16.6250013 15.5468775,16.9609354 15.046875,17.3828125 C14.5468725,17.8046896 14.1406266,18.2890598 13.828125,18.8359375 C13.5156234,19.3828152 13.359375,19.9687469 13.359375,20.59375 C13.359375,21.2187531 13.4765613,21.8124972 13.7109375,22.375 C13.9453137,22.9375028 14.265623,23.421873 14.671875,23.828125 C15.078127,24.234377 15.578122,24.5624987 16.171875,24.8125 C16.765628,25.0625013 17.4218714,25.1875 18.140625,25.1875 L18.3046875,25.1875 C18.3515627,25.1875 18.3984373,25.1796876 18.4453125,25.1640625 C18.4921877,25.1484374 18.5390623,25.140625 18.5859375,25.140625 L18.703125,25.140625 C18.6718748,25.2343755 18.6328127,25.3281245 18.5859375,25.421875 C18.5390623,25.5156255 18.5078126,25.6093745 18.4921875,25.703125 C18.4765624,25.7968755 18.4609376,25.898437 18.4453125,26.0078125 C18.4296874,26.117188 18.421875,26.2187495 18.421875,26.3125 C18.421875,26.5000009 18.4374998,26.6718742 18.46875,26.828125 C18.5000002,26.9843758 18.5546871,27.1328118 18.6328125,27.2734375 C18.7109379,27.4140632 18.804687,27.5468744 18.9140625,27.671875 C19.023438,27.7968756 19.1406244,27.9218744 19.265625,28.046875 L18.984375,28.046875 L18.7265625,28.046875 L18.46875,28.046875 L18.1875,28.046875 C17.3124956,28.046875 16.5000037,28.1796862 15.75,28.4453125 C14.9999962,28.7109388 14.3437528,29.0546854 13.78125,29.4765625 C13.2187472,29.8984396 12.7812516,30.3828098 12.46875,30.9296875 C12.1562484,31.4765652 12,32.0312472 12,32.59375 C12,33.1562528 12.1718733,33.6640602 12.515625,34.1171875 C12.8593767,34.5703148 13.3203096,34.9609359 13.8984375,35.2890625 C14.4765654,35.6171891 15.1562461,35.8671866 15.9375,36.0390625 C16.7187539,36.2109384 17.5468706,36.296875 18.421875,36.296875 C19.42188,36.296875 20.3046837,36.1640638 21.0703125,35.8984375 C21.8359413,35.6328112 22.4843723,35.2890646 23.015625,34.8671875 C23.5468777,34.4453104 23.9453112,33.9609402 24.2109375,33.4140625 C24.4765638,32.8671848 24.609375,32.3125028 24.609375,31.75 C24.609375,31.3124978 24.5703129,30.9062519 24.4921875,30.53125 C24.4140621,30.1562481 24.2890634,29.8046891 24.1171875,29.4765625 C23.9453116,29.1484359 23.7187514,28.835939 23.4375,28.5390625 C23.1562486,28.242186 22.812502,27.9531264 22.40625,27.671875 C22.2499992,27.5781245 22.0781259,27.4453134 21.890625,27.2734375 C21.7031241,27.1015616 21.5234384,26.9296884 21.3515625,26.7578125 C21.1796866,26.5859366 21.039063,26.4062509 20.9296875,26.21875 C20.820312,26.0312491 20.765625,25.8593758 20.765625,25.703125 C20.765625,25.5468742 20.7812498,25.3984382 20.8125,25.2578125 C20.8437502,25.1171868 20.8984371,24.9843756 20.9765625,24.859375 C21.0546879,24.7343744 21.1718742,24.5937508 21.328125,24.4375 C21.4843758,24.2812492 21.6874987,24.1093759 21.9375,23.921875 C22.2187514,23.7343741 22.4687489,23.5156263 22.6875,23.265625 C22.9062511,23.0156237 23.0937492,22.7500014 23.25,22.46875 C23.4062508,22.1874986 23.5234371,21.898439 23.6015625,21.6015625 C23.6796879,21.304686 23.71875,20.9843767 23.71875,20.640625 C23.71875,20.234373 23.6796879,19.8437519 23.6015625,19.46875 C23.5234371,19.0937481 23.3984384,18.7421891 23.2265625,18.4140625 C23.0546866,18.0859359 22.8437513,17.8046887 22.59375,17.5703125 C22.3437487,17.3359363 22.0468767,17.1562506 21.703125,17.03125 L23.71875,17.03125 L25.125,16 Z M22.921875,31.375 C22.921875,31.4062502 22.9296874,31.4531247 22.9453125,31.515625 C22.9609376,31.5781253 22.96875,31.6328123 22.96875,31.6796875 L22.96875,31.84375 L22.96875,32.03125 C22.96875,32.4687522 22.8906258,32.890623 22.734375,33.296875 C22.5781242,33.703127 22.3203143,34.0468736 21.9609375,34.328125 C21.6015607,34.6093764 21.1328154,34.8359366 20.5546875,35.0078125 C19.9765596,35.1796884 19.2656292,35.265625 18.421875,35.265625 C17.828122,35.265625 17.2734401,35.1796884 16.7578125,35.0078125 C16.2421849,34.8359366 15.8046893,34.5937516 15.4453125,34.28125 C15.0859357,33.9687484 14.7968761,33.609377 14.578125,33.203125 C14.3593739,32.796873 14.25,32.3750022 14.25,31.9375 C14.25,31.4687477 14.3749987,31.0390645 14.625,30.6484375 C14.8750013,30.2578105 15.2109354,29.914064 15.6328125,29.6171875 C16.0546896,29.320311 16.5468722,29.0859384 17.109375,28.9140625 C17.6718778,28.7421866 18.249997,28.65625 18.84375,28.65625 C18.9687506,28.65625 19.1015618,28.6640624 19.2421875,28.6796875 C19.3828132,28.6953126 19.5156244,28.7109374 19.640625,28.7265625 C19.7656256,28.7421876 19.8906244,28.7656248 20.015625,28.796875 C20.1406256,28.8281252 20.2656244,28.8593748 20.390625,28.890625 C20.7343767,29.1406263 21.0390612,29.3593741 21.3046875,29.546875 C21.5703138,29.7343759 21.8124989,29.9140616 22.03125,30.0859375 C22.2500011,30.2578134 22.4374992,30.4453115 22.59375,30.6484375 C22.7500008,30.8515635 22.8593747,31.0937486 22.921875,31.375 L22.921875,31.375 Z M19.03125,24.53125 C18.624998,24.53125 18.2343769,24.4218761 17.859375,24.203125 C17.4843731,23.9843739 17.1406266,23.6953143 16.828125,23.3359375 C16.5156234,22.9765607 16.2500011,22.5625023 16.03125,22.09375 C15.8124989,21.6249977 15.6718753,21.1250027 15.609375,20.59375 C15.5468747,20.0624973 15.5624995,19.5703148 15.65625,19.1171875 C15.7500005,18.6640602 15.9062489,18.2656267 16.125,17.921875 C16.3437511,17.5781233 16.6171859,17.3203134 16.9453125,17.1484375 C17.2734391,16.9765616 17.640623,16.890625 18.046875,16.890625 C18.453127,16.890625 18.8437481,16.9999989 19.21875,17.21875 C19.5937519,17.4375011 19.9374984,17.7187483 20.25,18.0625 C20.5625016,18.4062517 20.8281239,18.8124977 21.046875,19.28125 C21.2656261,19.7500023 21.4062497,20.2499973 21.46875,20.78125 C21.5312503,21.3125027 21.5156255,21.8046852 21.421875,22.2578125 C21.3281245,22.7109398 21.1718761,23.1093733 20.953125,23.453125 C20.7343739,23.7968767 20.4609391,24.0624991 20.1328125,24.25 C19.8046859,24.4375009 19.437502,24.53125 19.03125,24.53125 L19.03125,24.53125 Z M31.5,20.5 L31.5,16 L30,16 L30,20.5 L25.5,20.5 L25.5,22 L30,22 L30,26.5 L31.5,26.5 L31.5,22 L36,22 L36,20.5 L31.5,20.5 Z" id="google-plus"></path>
                    </g>
                </g>
            </g>
        </g>
    </g>
</svg>