<?xml version="1.0" encoding="UTF-8" standalone="no"?>
<svg width="263px" height="100px" viewBox="0 0 263 100" version="1.1" xmlns="http://www.w3.org/2000/svg" xmlns:xlink="http://www.w3.org/1999/xlink" xmlns:sketch="http://www.bohemiancoding.com/sketch/ns">
    <!-- Generator: Sketch 3.1.1 (8761) - http://www.bohemiancoding.com/sketch -->
    <title>L3D + LOGO</title>
    <desc>Created with Sketch.</desc>
    <defs></defs>
    <g id="Page-1" stroke="none" stroke-width="1" fill="none" fill-rule="evenodd" sketch:type="MSPage">
        <g id="header" sketch:type="MSArtboardGroup" transform="translate(-90.000000, 0.000000)">
            <g sketch:type="MSLayerGroup" transform="translate(0.000000, -4.000000)" id="L3D-+-LOGO">
                <g transform="translate(90.000000, 4.000000)" sketch:type="MSShapeGroup">
                    <g id="L3D" transform="translate(140.000000, 20.000000)">
                        <path d="M53.35792,59.9969697 C37.39849,59.9969697 21.43906,59.9921212 5.47963,60.0042424 C3.93572,60.0054545 2.40706,60.0290909 1.24806,58.7866667 C-0.72224,56.6757576 0.42334,52.8909091 3.26106,52.2854545 C4.13824,52.0981818 5.08313,52.2090909 5.99691,52.2090909 C36.8989,52.2072727 67.80089,52.1357576 98.70288,52.2927273 C102.82953,52.3127273 105.29576,51.1581818 106.87383,47.2751515 C108.5739,43.089697 110.84737,39.1327273 112.89514,35.089697 C114.56776,31.7872727 114.53116,28.5551515 112.8256,25.2454545 C110.47161,20.6787879 108.2079,16.0654545 105.97164,11.4406061 C104.92854,9.2830303 103.35962,8.28363636 100.91169,8.36181818 C97.45909,8.47151515 93.99551,8.49151515 90.54596,8.34666667 C88.74768,8.27090909 88.3951,8.91636364 88.40669,10.5618182 C88.47623,20.7618182 88.45366,30.9624242 88.43414,41.1630303 C88.42804,44.3157576 87.42337,45.3769697 84.67288,45.4630303 C82.01145,45.5454545 80.62675,44.2533333 80.62004,41.6793939 C80.58344,28.5509091 80.61943,15.4212121 80.5749,2.29212121 C80.57063,0.953939394 81.00983,0.565454545 82.31645,0.576969697 C89.22775,0.635757576 96.14393,0.487272727 103.05035,0.683636364 C106.9391,0.794545455 110.12086,2.66969697 111.94171,6.17878788 C115.00391,12.0824242 118.04476,18.0078788 120.79342,24.0587879 C122.97173,28.8545455 122.32208,33.7236364 119.9992,38.3745455 C117.65741,43.0618182 115.13323,47.6630303 112.94089,52.4169697 C110.48503,57.7430303 106.41633,60.0472727 100.62499,60.0212121 C84.8693,59.950303 69.11361,59.9969697 53.35792,59.9969697" id="Fill-1" fill="#F9F9F9"></path>
                        <path d="M52.54662,45.4533333 C48.38337,45.4533333 44.22012,45.4642424 40.05687,45.449697 C36.63599,45.4387879 35.40928,44.4515152 35.36719,41.7290909 C35.32388,38.9333333 36.7098,37.6957576 40.1624,37.6763636 C47.57512,37.6351515 54.99394,37.4969697 62.39812,37.7472727 C65.27244,37.8442424 65.92331,36.8484848 65.56158,34.370303 C65.38773,33.1769697 65.43714,31.9509091 65.24926,30.76 C64.69477,27.2575758 63.3668,26.1721212 59.75743,26.1666667 C56.30483,26.1606061 52.85284,26.1448485 49.39963,26.1715152 C46.7931,26.1921212 45.09852,25.2721212 45.01434,22.3884848 C44.92955,19.490303 46.66683,18.3993939 49.19955,18.3206061 C52.85162,18.2060606 56.50918,18.2836364 60.16491,18.270303 C63.44793,18.2581818 64.6234,17.2563636 65.23279,13.9739394 C66.24966,8.48848485 66.24966,8.48848485 60.70903,8.48848485 C53.9057,8.48848485 47.10237,8.50606061 40.29904,8.48060606 C36.76409,8.46787879 35.38915,7.34727273 35.36719,4.59030303 C35.34401,1.76787879 36.69089,0.616363636 40.19595,0.606060606 C48.42119,0.582424242 56.64643,0.564242424 64.87167,0.610909091 C70.38912,0.641818182 73.2976,3.55757576 73.27869,9.06121212 C73.26466,13.3551515 73.94603,17.8151515 71.03816,21.5890909 C70.38363,22.4381818 71.05036,22.8236364 71.36573,23.4012121 C74.35961,28.889697 73.61297,34.770303 72.77117,40.5115152 C72.31977,43.5927273 69.27526,45.3969697 65.95015,45.4393939 C61.48312,45.4951515 57.01487,45.4527273 52.54662,45.4533333" id="Fill-2" fill="#F9F9F9"></path>
                        <path d="M4.20717,23.3884848 L4.22181,23.3884848 C4.22181,29.9448485 4.2822,36.5024242 4.18216,43.0575758 C4.15532,44.8654545 4.59391,45.4909091 6.52822,45.4539394 C12.51598,45.3412121 18.5074,45.4527273 24.4976,45.4575758 C27.19136,45.4593939 29.21717,43.7509091 29.20131,41.5442424 C29.18484,39.18 27.58603,37.7084848 24.73062,37.6484848 C21.38172,37.5781818 18.01879,37.4860606 14.68331,37.7133333 C12.29333,37.8769697 11.8645,37.0078788 11.87365,34.8206061 C11.91635,24.5333333 11.75775,14.2448485 11.70407,3.9569697 C11.69065,1.38969697 10.63962,-0.0690909091 7.89523,0.0254545455 C5.29724,0.115757576 4.13519,1.35575758 4.17545,4.02242424 C4.27366,10.4769697 4.20717,16.9327273 4.20717,23.3884848" id="Fill-3" fill="#FFFFFF"></path>
                    </g>
                    <g id="LOGO">
                        <rect id="logo-bg" fill="#00E896" x="0" y="0" width="100" height="100"></rect>
                        <path d="M82.9810989,37.2434629 C82.933197,31.7561316 80.4277193,27.7978704 75.667381,25.3374447 C69.6997759,22.254459 63.7342535,19.1636646 57.7236061,16.1694132 C51.9719067,13.304359 46.1341227,13.2660258 40.3629848,16.1204319 C34.4481413,19.0458255 28.5832823,22.0748607 22.6948195,25.0542047 C17.3638237,27.7503088 14.9721998,32.2104514 15.0041344,38.2096023 C15.0471767,46.0153843 15.0596728,53.8218762 15.0006632,61.6276581 C14.9534555,67.7815617 17.424916,72.2942351 22.8926752,75.030802 C28.690888,77.93064 34.4606374,80.8936569 40.2616272,83.7885259 C45.1712251,86.2390133 50.4050285,86.8076229 55.3944629,84.7092334 C62.8491096,81.5737169 70.0461969,77.7978935 77.0593131,73.7090153 C80.8720268,71.4849779 82.7832433,67.9221169 82.9165355,63.491789 C83.050522,59.0032514 82.9463874,54.5061953 82.9463874,50.0133985 L82.9887355,50.0133985 C82.9887355,45.7569899 83.0185874,41.4991616 82.9810989,37.2434629 L82.9810989,37.2434629 Z M71.6287518,65.0841609 C64.4754503,68.7587557 57.6659509,73.1864174 49.9830833,75.7135498 C48.5933188,76.1336668 47.2042475,76.0593604 45.8165624,75.6999746 C38.5308694,73.0463784 31.8620793,69.0524089 25.0012868,65.4792709 C23.4070433,64.6490397 22.9904605,62.9842903 23.0001646,61.2116538 C23.0431398,53.238719 23.0750247,45.2664986 23.1110685,37.2949928 C22.9980851,35.8174384 23.150578,34.4406264 24.4606303,33.502508 C31.159919,28.9605287 38.492053,25.6939047 45.819335,22.4587179 C47.837786,21.5677555 50.20905,22.0807555 52.1963092,23.0903224 C58.5566479,26.3205078 64.8539099,29.6850162 71.1754322,32.9980818 C72.8320592,33.8933311 73.1613051,35.3658841 72.8611714,37.1135137 C72.9076124,45.4151115 72.9512808,53.7174237 72.9998013,62.019736 C73.0081191,63.2693697 72.7585853,64.5032848 71.6287518,65.0841609 L71.6287518,65.0841609 Z" id="Fill-1" fill="#2A2D34"></path>
                        <path d="M46,77.7102467 C46.0405922,70.3559845 46.0791882,62.0010323 46.1237731,54.6460801 C46.1330893,53.0562677 45.84362,51 48.058892,51 C50.3100982,51.00069 49.9540842,53.0907689 49.9594078,54.6578105 C49.9853602,62.0127627 49.9893529,69.3690949 50,76.7233571 C48.6657794,77.1290904 47.3322243,77.0573281 46,76.7102467" id="Fill-2" fill="#2A2D34"></path>
                        <path d="M74.8953547,37.0592526 C68.4473422,40.045572 62.0029796,43.0389362 55.5498572,46.0139837 C54.0548351,46.7029717 52.3035862,47.9851376 51.2421789,45.7004871 C50.3070601,43.6863595 52.2875263,43.1432002 53.64969,42.4760513 C60.1305521,39.3009295 66.6260141,36.1561006 73.1185561,33 C74.8646951,33.8841309 75.2114409,35.3360781 74.8953547,37.0592526" id="Fill-3" fill="#2A2D34"></path>
                        <path d="M24.3737206,33 C30.4527678,36.109204 36.5338854,39.2140227 42.6087921,42.3334591 C43.9537873,43.0234188 45.6459004,43.7119167 44.7487768,45.7532912 C43.8323306,47.838519 42.2444219,46.8284296 40.9180592,46.1472406 C34.9459767,43.0789664 28.9918366,39.972686 23.0301055,36.8795616 C22.9176201,35.368082 23.069441,33.9596579 24.3737206,33" id="Fill-4" fill="#2A2D34"></path>
                    </g>
                </g>
            </g>
        </g>
    </g>
</svg>