<?xml version="1.0" encoding="UTF-8" standalone="no"?>
<svg width="24px" height="21px" viewBox="0 0 24 21" version="1.1" xmlns="http://www.w3.org/2000/svg" xmlns:xlink="http://www.w3.org/1999/xlink" xmlns:sketch="http://www.bohemiancoding.com/sketch/ns">
    <!-- Generator: Sketch Beta 3.2.2 (9983) - http://www.bohemiancoding.com/sketch -->
    <title>vine</title>
    <desc>Created with Sketch Beta.</desc>
    <defs></defs>
    <g id="Page-1" stroke="none" stroke-width="1" fill="none" fill-rule="evenodd" sketch:type="MSPage">
        <g id="header" sketch:type="MSArtboardGroup" transform="translate(-1274.000000, -703.000000)" fill="#333333">
            <g id="detail-page" sketch:type="MSLayerGroup" transform="translate(80.000000, 272.000000)">
                <g id="social-link" transform="translate(1008.000000, 351.000000)" sketch:type="MSShapeGroup">
                    <g id="vine-button" transform="translate(174.000000, 65.000000)">
                        <path d="M12,20.71875 L12.984375,21.984375 C12.984375,21.984375 13.0937489,21.9062508 13.3125,21.75 C13.5312511,21.5937492 13.7812486,21.4453132 14.0625,21.3046875 C14.3437514,21.1640618 14.6406234,21.0625003 14.953125,21 C15.2656266,20.9374997 15.4999992,21.0156239 15.65625,21.234375 C15.8125008,21.4218759 16.0781231,22.0781194 16.453125,23.203125 C16.8281269,24.3281306 17.218748,25.5624933 17.625,26.90625 C18.031252,28.2500067 18.4296855,29.5468688 18.8203125,30.796875 C19.2109395,32.0468812 19.5156239,32.8906228 19.734375,33.328125 C19.9218759,33.734377 20.1874983,34.140623 20.53125,34.546875 C20.8750017,34.953127 21.2656228,35.2812488 21.703125,35.53125 C22.1406272,35.7812512 22.6249973,35.9218748 23.15625,35.953125 C23.6875027,35.9843752 24.2343722,35.8281267 24.796875,35.484375 C25.3593778,35.1093731 26.1874945,34.4531297 27.28125,33.515625 C28.3750055,32.5781203 29.5078066,31.4218819 30.6796875,30.046875 C31.8515684,28.6718681 32.9296826,27.132821 33.9140625,25.4296875 C34.8984424,23.726554 35.5468734,21.9375094 35.859375,20.0625 C36.2031267,18.1562405 35.9218795,16.8125039 35.015625,16.03125 C34.1093705,15.2499961 33.0156314,14.9296868 31.734375,15.0703125 C30.4531186,15.2109382 29.2031311,15.7656202 27.984375,16.734375 C26.7656189,17.7031298 26.0312513,19.0156167 25.78125,20.671875 C26.4687534,20.265623 27.0624975,20.0859373 27.5625,20.1328125 C28.0625025,20.1796877 28.4453112,20.3749983 28.7109375,20.71875 C28.9765638,21.0625017 29.109375,21.5234346 29.109375,22.1015625 C29.109375,22.6796904 28.9218769,23.2968717 28.546875,23.953125 C28.2031233,24.6093783 27.8671891,25.2031223 27.5390625,25.734375 C27.2109359,26.2656277 26.9062514,26.7187481 26.625,27.09375 C26.3437486,27.4687519 26.0781262,27.7578115 25.828125,27.9609375 C25.5781237,28.1640635 25.3750008,28.265625 25.21875,28.265625 C25.0624992,28.265625 24.9062508,28.1640635 24.75,27.9609375 C24.5937492,27.7578115 24.4375008,27.4453146 24.28125,27.0234375 C24.1249992,26.6015604 23.9687508,26.093753 23.8125,25.5 C23.6562492,24.906247 23.4687511,24.2343787 23.25,23.484375 C23.0624991,22.6718709 22.8984382,21.7578176 22.7578125,20.7421875 C22.6171868,19.7265574 22.4218762,18.7890668 22.171875,17.9296875 C21.9218737,17.0703082 21.5703148,16.3671902 21.1171875,15.8203125 C20.6640602,15.2734348 20.0156292,15.0781242 19.171875,15.234375 C18.3906211,15.3906258 17.5781292,15.765622 16.734375,16.359375 C15.8906208,16.953128 15.117191,17.5703093 14.4140625,18.2109375 C13.710934,18.8515657 13.1328148,19.4296849 12.6796875,19.9453125 C12.2265602,20.4609401 12,20.71875 12,20.71875 L12,20.71875 Z" id="vine"></path>
                    </g>
                </g>
            </g>
        </g>
    </g>
</svg>