<?xml version="1.0" encoding="utf-8"?>
<!-- Generator: Adobe Illustrator 18.1.0, SVG Export Plug-In . SVG Version: 6.00 Build 0)  -->
<svg version="1.1" id="Layer_1" xmlns:sketch="http://www.bohemiancoding.com/sketch/ns"
	 xmlns="http://www.w3.org/2000/svg" xmlns:xlink="http://www.w3.org/1999/xlink" x="0px" y="0px" viewBox="-813 383 100 100"
	 enable-background="new -813 383 100 100" xml:space="preserve">
<title>LOGO</title>
<desc>Created with Sketch Beta.</desc>
<g id="L3D-_x2B_-LOGO" transform="translate(0.000000, -4.000000)" sketch:type="MSLayerGroup">
	<g id="LOGO">
		<path id="Fill-1" fill="#F9F9F9" d="M-737.3,412.3c-6-3.1-11.9-6.2-17.9-9.2c-5.8-2.9-11.6-2.9-17.4,0c-5.9,2.9-11.8,6-17.7,8.9
			c-5.3,2.7-7.7,7.2-7.7,13.2c0,7.8,0.1,15.6,0,23.4c0,6.2,2.4,10.7,7.9,13.4c5.8,2.9,11.6,5.9,17.4,8.8c4.9,2.5,10.1,3,15.1,0.9
			c7.5-3.1,14.7-6.9,21.7-11c3.8-2.2,5.7-5.8,5.9-10.2c0.1-4.5,0-9,0-13.5c0-4.3,0.1-8.5,0-12.8
			C-730.1,418.8-732.6,414.8-737.3,412.3z M-741.4,452.1c-7.2,3.7-14,8.1-21.6,10.6c-1.4,0.4-2.8,0.3-4.2,0
			c-7.3-2.7-14-6.6-20.8-10.2c-1.6-0.8-2-2.5-2-4.3c0-8,0.1-15.9,0.1-23.9c-0.1-1.5,0-2.9,1.3-3.8c6.7-4.5,14-7.8,21.4-11
			c2-0.9,4.4-0.4,6.4,0.6c6.4,3.2,12.7,6.6,19,9.9c1.7,0.9,2,2.4,1.7,4.1c0,8.3,0.1,16.6,0.1,24.9
			C-740,450.3-740.2,451.5-741.4,452.1L-741.4,452.1z"/>
		<path id="Fill-2" fill="#239BCE" d="M-767,464.7c0-7.4,0.1-15.7,0.1-23.1c0-1.6-0.3-3.6,1.9-3.6c2.3,0,1.9,2.1,1.9,3.7
			c0,7.4,0,14.7,0,22.1c-1.3,0.4-2.7,0.3-4,0"/>
		<path id="Fill-3" fill="#DE2774" d="M-738.1,424.1c-6.4,3-12.9,6-19.3,9c-1.5,0.7-3.2,2-4.3-0.3c-0.9-2,1-2.6,2.4-3.2
			c6.5-3.2,13-6.3,19.5-9.5C-738.1,420.9-737.8,422.3-738.1,424.1"/>
		<path id="Fill-4" fill="#83B93C" d="M-788.6,420c6.1,3.1,12.2,6.2,18.2,9.3c1.3,0.7,3,1.4,2.1,3.4c-0.9,2.1-2.5,1.1-3.8,0.4
			c-6-3.1-11.9-6.2-17.9-9.3C-790.1,422.4-789.9,421-788.6,420"/>
	</g>
</g>
</svg>
