<?xml version="1.0" encoding="UTF-8" standalone="no"?>
<svg width="24px" height="21px" viewBox="0 0 24 21" version="1.1" xmlns="http://www.w3.org/2000/svg" xmlns:xlink="http://www.w3.org/1999/xlink" xmlns:sketch="http://www.bohemiancoding.com/sketch/ns">
    <!-- Generator: Sketch Beta 3.2.2 (9983) - http://www.bohemiancoding.com/sketch -->
    <title>twitter</title>
    <desc>Created with Sketch Beta.</desc>
    <defs></defs>
    <g id="Page-1" stroke="none" stroke-width="1" fill="none" fill-rule="evenodd" sketch:type="MSPage">
        <g id="header" sketch:type="MSArtboardGroup" transform="translate(-1216.000000, -702.000000)" fill="#333333">
            <g id="detail-page" sketch:type="MSLayerGroup" transform="translate(80.000000, 272.000000)">
                <g id="social-link" transform="translate(1008.000000, 351.000000)" sketch:type="MSShapeGroup">
                    <g id="twitter-button" transform="translate(116.000000, 65.000000)">
                        <path d="M36,17.046875 C35.7812489,17.1406255 35.5546887,17.2343745 35.3203125,17.328125 C35.0859363,17.4218755 34.8515637,17.4999997 34.6171875,17.5625 C34.3828113,17.6250003 34.1484387,17.6796873 33.9140625,17.7265625 C33.6796863,17.7734377 33.4375012,17.8124998 33.1875,17.84375 C33.4375012,17.6874992 33.6718739,17.5078135 33.890625,17.3046875 C34.1093761,17.1015615 34.3124991,16.8906261 34.5,16.671875 C34.6875009,16.4531239 34.8515618,16.2109388 34.9921875,15.9453125 C35.1328132,15.6796862 35.2499995,15.4062514 35.34375,15.125 L34.59375,15.5 C34.3437488,15.6250006 34.0937512,15.7343745 33.84375,15.828125 C33.5937488,15.9218755 33.3281264,16.0078121 33.046875,16.0859375 C32.7656236,16.1640629 32.4843764,16.2343747 32.203125,16.296875 C31.9843739,16.0468737 31.7421888,15.8281259 31.4765625,15.640625 C31.2109362,15.4531241 30.9218766,15.2968756 30.609375,15.171875 C30.2968734,15.0468744 29.9765641,14.9453129 29.6484375,14.8671875 C29.3203109,14.7890621 28.9687519,14.75 28.59375,14.75 C27.9374967,14.75 27.3046905,14.8749987 26.6953125,15.125 C26.0859345,15.3750013 25.5625022,15.7265602 25.125,16.1796875 C24.6874978,16.6328148 24.3359388,17.156247 24.0703125,17.75 C23.8046862,18.343753 23.671875,18.9843716 23.671875,19.671875 C23.671875,19.7656255 23.6796874,19.8593745 23.6953125,19.953125 C23.7109376,20.0468755 23.71875,20.1406245 23.71875,20.234375 C23.71875,20.3281255 23.7265624,20.4218745 23.7421875,20.515625 C23.7578126,20.6093755 23.7812498,20.7031245 23.8125,20.796875 C22.7812448,20.7343747 21.7890673,20.5703138 20.8359375,20.3046875 C19.8828077,20.0390612 18.9765668,19.6875022 18.1171875,19.25 C17.2578082,18.8124978 16.4531287,18.2890655 15.703125,17.6796875 C14.9531213,17.0703095 14.281253,16.3906288 13.6875,15.640625 C13.5624994,15.8281259 13.4609379,16.0234365 13.3828125,16.2265625 C13.3046871,16.4296885 13.2343753,16.6328115 13.171875,16.8359375 C13.1093747,17.0390635 13.0625002,17.2499989 13.03125,17.46875 C12.9999998,17.6875011 12.984375,17.9062489 12.984375,18.125 C12.984375,18.5625022 13.039062,18.9765605 13.1484375,19.3671875 C13.257813,19.7578145 13.4062491,20.1328107 13.59375,20.4921875 C13.7812509,20.8515643 14.0156236,21.1718736 14.296875,21.453125 C14.5781264,21.7343764 14.8749984,21.9843739 15.1875,22.203125 C14.9999991,22.203125 14.8046885,22.1875002 14.6015625,22.15625 C14.3984365,22.1249998 14.2031259,22.0859377 14.015625,22.0390625 C13.8281241,21.9921873 13.6484384,21.9296879 13.4765625,21.8515625 C13.3046866,21.7734371 13.1406258,21.6875005 12.984375,21.59375 L12.984375,21.6171875 L12.984375,21.640625 L12.984375,21.6875 C12.984375,22.281253 13.0781241,22.8437473 13.265625,23.375 C13.4531259,23.9062527 13.7265607,24.3828104 14.0859375,24.8046875 C14.4453143,25.2265646 14.8671851,25.585936 15.3515625,25.8828125 C15.8359399,26.179689 16.3593722,26.3906244 16.921875,26.515625 C16.8281245,26.5468752 16.726563,26.5703124 16.6171875,26.5859375 C16.507812,26.6015626 16.398438,26.6171874 16.2890625,26.6328125 C16.179687,26.6484376 16.070313,26.65625 15.9609375,26.65625 L15.609375,26.65625 L15.3984375,26.65625 L15.1640625,26.65625 C15.0859371,26.65625 15.0078129,26.6484376 14.9296875,26.6328125 C14.8515621,26.6171874 14.7656255,26.5937502 14.671875,26.5625 C14.8281258,27.0625025 15.054686,27.5234354 15.3515625,27.9453125 C15.648439,28.3671896 15.999998,28.726561 16.40625,29.0234375 C16.812502,29.320314 17.2578101,29.5546866 17.7421875,29.7265625 C18.2265649,29.8984384 18.7499972,29.984375 19.3125,29.984375 C18.8749978,30.3281267 18.4218773,30.6328112 17.953125,30.8984375 C17.4843727,31.1640638 16.9921901,31.3828116 16.4765625,31.5546875 C15.9609349,31.7265634 15.4296902,31.8593745 14.8828125,31.953125 C14.3359348,32.0468755 13.765628,32.09375 13.171875,32.09375 L12.890625,32.09375 L12.5859375,32.09375 C12.476562,32.09375 12.3750005,32.0859376 12.28125,32.0703125 C12.1874995,32.0546874 12.0937505,32.046875 12,32.046875 C12.5312527,32.3906267 13.093747,32.7031236 13.6875,32.984375 C14.281253,33.2656264 14.8984343,33.4999991 15.5390625,33.6875 C16.1796907,33.8750009 16.8359341,34.0156245 17.5078125,34.109375 C18.1796909,34.2031255 18.8593716,34.25 19.546875,34.25 C21.7968863,34.25 23.7968663,33.8281292 25.546875,32.984375 C27.2968837,32.1406208 28.7656191,31.0468817 29.953125,29.703125 C31.1406309,28.3593683 32.0390595,26.8515709 32.6484375,25.1796875 C33.2578155,23.5078041 33.5625,21.8593831 33.5625,20.234375 L33.5625,20.0703125 L33.5625,19.9296875 L33.5625,19.765625 L33.5625,19.625 C33.7812511,19.4374991 34.0078113,19.2500009 34.2421875,19.0625 C34.4765637,18.8749991 34.6953115,18.6718761 34.8984375,18.453125 C35.1015635,18.2343739 35.2968741,18.0078137 35.484375,17.7734375 C35.6718759,17.5390613 35.8437492,17.2968763 36,17.046875 L36,17.046875 Z" id="twitter"></path>
                    </g>
                </g>
            </g>
        </g>
    </g>
</svg>